<?xml version="1.0" encoding="iso-8859-1"?>
<!-- Generator: Adobe Illustrator 18.0.0, SVG Export Plug-In . SVG Version: 6.00 Build 0)  -->
<!DOCTYPE svg PUBLIC "-//W3C//DTD SVG 1.1//EN" "http://www.w3.org/Graphics/SVG/1.1/DTD/svg11.dtd">
<svg version="1.1" id="Capa_1" xmlns="http://www.w3.org/2000/svg" xmlns:xlink="http://www.w3.org/1999/xlink" x="0px" y="0px"
	 viewBox="0 0 447 447" style="enable-background:new 0 0 447 447;" xml:space="preserve">
<g>
	<radialGradient id="SVGID_1_" cx="223.5" cy="223.5" r="223.5" gradientUnits="userSpaceOnUse">
		<stop  offset="0" style="stop-color:#FBB03B;stop-opacity:0.9532"/>
		<stop  offset="0.1744" style="stop-color:#FBB13E;stop-opacity:0.787"/>
		<stop  offset="0.3194" style="stop-color:#FBB549;stop-opacity:0.6487"/>
		<stop  offset="0.454" style="stop-color:#FCBC5A;stop-opacity:0.5205"/>
		<stop  offset="0.5821" style="stop-color:#FCC672;stop-opacity:0.3983"/>
		<stop  offset="0.7059" style="stop-color:#FDD392;stop-opacity:0.2804"/>
		<stop  offset="0.8263" style="stop-color:#FEE3B8;stop-opacity:0.1656"/>
		<stop  offset="0.9418" style="stop-color:#FEF5E5;stop-opacity:0.0555"/>
		<stop  offset="1" style="stop-color:#FFFFFF;stop-opacity:0"/>
	</radialGradient>
	<circle style="fill:url(#SVGID_1_);" cx="223.5" cy="223.5" r="223.5"/>
	<linearGradient id="SVGID_2_" gradientUnits="userSpaceOnUse" x1="278.1432" y1="415.5256" x2="278.1432" y2="388.13">
		<stop  offset="0" style="stop-color:#7A7A7A"/>
		<stop  offset="1" style="stop-color:#1A1A1A"/>
	</linearGradient>
	<path style="fill:url(#SVGID_2_);" d="M302.32,395.73c-0.11,0.57-0.23,1.14-0.38,1.7c-1.69,6.3-5.73,11.56-11.37,14.82
		c-5.64,3.26-12.22,4.12-18.52,2.43c-11.89-3.19-19.37-14.67-17.9-26.55C270.12,391.13,286.19,393.68,302.32,395.73z"/>
	<linearGradient id="SVGID_3_" gradientUnits="userSpaceOnUse" x1="223.6189" y1="366.7688" x2="381.4592" y2="391.7682">
		<stop  offset="0" style="stop-color:#7A7A7A"/>
		<stop  offset="0.5581" style="stop-color:#D9D9D9"/>
		<stop  offset="0.6283" style="stop-color:#C1C1C1"/>
		<stop  offset="0.7771" style="stop-color:#828282"/>
		<stop  offset="0.9912" style="stop-color:#1E1E1E"/>
		<stop  offset="1" style="stop-color:#1A1A1A"/>
	</linearGradient>
	<path style="fill:url(#SVGID_3_);" d="M380.36,382.81l0.76,11.1c-52.79-1.6-105.55-8.39-156.95-20.2l0.22-11.81
		C275.44,373.83,327.86,380.86,380.36,382.81z"/>
	<linearGradient id="SVGID_4_" gradientUnits="userSpaceOnUse" x1="221.6558" y1="342.3215" x2="381.4562" y2="359.1172">
		<stop  offset="0" style="stop-color:#7A7A7A"/>
		<stop  offset="0.3082" style="stop-color:#D9D9D9"/>
		<stop  offset="0.4181" style="stop-color:#C1C1C1"/>
		<stop  offset="0.6511" style="stop-color:#828282"/>
		<stop  offset="0.9863" style="stop-color:#1E1E1E"/>
		<stop  offset="1" style="stop-color:#1A1A1A"/>
	</linearGradient>
	<path style="fill:url(#SVGID_4_);" d="M379.06,363.97l0.75,10.81c-52.28-1.99-104.47-9.07-155.28-21.06l0.46-24.75
		c0.01-0.63-0.13-1.25-0.4-1.81l-1.1-2.29c47.24,11.66,95.73,19.13,144.3,22.24C371.28,352.88,375.05,358.55,379.06,363.97z"/>
	<linearGradient id="SVGID_5_" gradientUnits="userSpaceOnUse" x1="19.0173" y1="310.7364" x2="192.3987" y2="341.3082">
		<stop  offset="0" style="stop-color:#1A1A1A"/>
		<stop  offset="0.4384" style="stop-color:#D9D9D9"/>
		<stop  offset="0.6747" style="stop-color:#C1C1C1"/>
		<stop  offset="1" style="stop-color:#999999"/>
	</linearGradient>
	<path style="fill:url(#SVGID_5_);" d="M190.1,353.11l-1.81,11.5c-57.93-16.12-114.05-38.69-166.93-67.16l6.22-9.23
		C79.17,315.54,133.81,337.36,190.1,353.11z"/>
	<linearGradient id="SVGID_6_" gradientUnits="userSpaceOnUse" x1="34.5604" y1="274.3465" x2="196.5267" y2="330.1159">
		<stop  offset="0" style="stop-color:#1A1A1A"/>
		<stop  offset="0.7412" style="stop-color:#D9D9D9"/>
		<stop  offset="0.8501" style="stop-color:#C1C1C1"/>
		<stop  offset="1" style="stop-color:#999999"/>
	</linearGradient>
	<path style="fill:url(#SVGID_6_);" d="M186.78,314.88l6.83,15.92l-2.26,14.35c-55.14-15.5-108.68-36.88-159.27-63.6l6.05-8.99
		c6.14-2.67,12.24-5.69,18.18-8.96C98.15,284.33,142.03,301.57,186.78,314.88z"/>
	<linearGradient id="SVGID_7_" gradientUnits="userSpaceOnUse" x1="200.81" y1="338.75" x2="200.81" y2="180.27">
		<stop  offset="0" style="stop-color:#878787"/>
		<stop  offset="0.0634" style="stop-color:#717171"/>
		<stop  offset="0.182" style="stop-color:#4F4F4F"/>
		<stop  offset="0.3084" style="stop-color:#323232"/>
		<stop  offset="0.443" style="stop-color:#1C1C1C"/>
		<stop  offset="0.5896" style="stop-color:#0C0C0C"/>
		<stop  offset="0.7571" style="stop-color:#030303"/>
		<stop  offset="0.992" style="stop-color:#000000"/>
	</linearGradient>
	<path style="fill:url(#SVGID_7_);" d="M199.88,294.36l17.09,35.41l-0.16,8.98l-15.63-4.6l0.51-3.24c0.12-0.75,0.03-1.51-0.27-2.2
		l-16.77-39.08l8.96-22.02c0.27-0.67,0.35-1.39,0.25-2.11l-5.31-34.97l28.09-50.26l-15.76,53.83c-0.22,0.75-0.22,1.55,0.01,2.29
		l8.32,27.23l-9.51,27.7C199.36,292.31,199.43,293.41,199.88,294.36z"/>
	<linearGradient id="SVGID_8_" gradientUnits="userSpaceOnUse" x1="63.8026" y1="264.0673" x2="186.1206" y2="283.4405">
		<stop  offset="0" style="stop-color:#FBB03B"/>
		<stop  offset="0.1945" style="stop-color:#FBB736"/>
		<stop  offset="0.4823" style="stop-color:#FCCB27"/>
		<stop  offset="0.8265" style="stop-color:#FEEC0E"/>
		<stop  offset="1" style="stop-color:#FFFF00"/>
	</linearGradient>
	<path style="fill:url(#SVGID_8_);" d="M176.64,291.25l6.02,14.04c-40.4-12.38-80.03-28-118.02-46.51c6.92-4.23,13.62-8.85,20-13.81
		c30.68,14.16,62.47,26.49,94.6,36.72l-2.63,6.48C176.21,289.16,176.22,290.27,176.64,291.25z"/>
	<linearGradient id="SVGID_9_" gradientUnits="userSpaceOnUse" x1="206.0345" y1="303.5072" x2="364.5974" y2="328.6212">
		<stop  offset="0" style="stop-color:#FBB03B"/>
		<stop  offset="0.1945" style="stop-color:#FBB736"/>
		<stop  offset="0.4823" style="stop-color:#FCCB27"/>
		<stop  offset="0.8265" style="stop-color:#FEEC0E"/>
		<stop  offset="1" style="stop-color:#FFFF00"/>
	</linearGradient>
	<path style="fill:url(#SVGID_9_);" d="M352.58,316.81c3.05,7.49,6.53,14.84,10.41,21.96c-48.53-3.43-96.94-11.25-144.03-23.29
		l-11.16-23.12l0.67-1.95c2.36,0.66,4.72,1.31,7.07,1.94C260.29,304.35,306.38,312.57,352.58,316.81z"/>
	<linearGradient id="SVGID_10_" gradientUnits="userSpaceOnUse" x1="269.9794" y1="31.3257" x2="291.2039" y2="68.0876">
		<stop  offset="0" style="stop-color:#7A7A7A"/>
		<stop  offset="1" style="stop-color:#1A1A1A"/>
	</linearGradient>
	<path style="fill:url(#SVGID_10_);" d="M298.99,39.1c2.83,4.91,3.59,10.64,2.12,16.12c-1.42,5.27-4.83,9.78-9.46,12.61
		c-4.83-1.72-9.72-3.26-14.69-4.59c-4.98-1.34-9.99-2.46-15.04-3.4c-2.58-4.76-3.26-10.36-1.85-15.63
		c3.03-11.31,14.71-18.04,26.03-15.01C291.57,30.67,296.15,34.19,298.99,39.1z"/>
	<linearGradient id="SVGID_11_" gradientUnits="userSpaceOnUse" x1="188.4472" y1="56.8367" x2="354.6234" y2="114.0557">
		<stop  offset="0" style="stop-color:#7A7A7A"/>
		<stop  offset="0.5436" style="stop-color:#D9D9D9"/>
		<stop  offset="0.6257" style="stop-color:#C1C1C1"/>
		<stop  offset="0.7999" style="stop-color:#828282"/>
		<stop  offset="1" style="stop-color:#333333"/>
	</linearGradient>
	<path style="fill:url(#SVGID_11_);" d="M274.89,70.96c29.77,7.98,56.98,23.18,79.36,44.18c-29.25-3.35-58.38-8.89-86.77-16.5
		c-28.4-7.61-56.4-17.39-83.4-29.12C213.96,62.53,245.13,62.98,274.89,70.96z"/>
	<linearGradient id="SVGID_12_" gradientUnits="userSpaceOnUse" x1="170.0096" y1="93.6574" x2="359.3499" y2="127.0432">
		<stop  offset="0.0261" style="stop-color:#4D4D4D"/>
		<stop  offset="0.7687" style="stop-color:#BBBBBB"/>
		<stop  offset="0.82" style="stop-color:#A0A0A0"/>
		<stop  offset="0.9295" style="stop-color:#5C5C5C"/>
		<stop  offset="0.992" style="stop-color:#333333"/>
	</linearGradient>
	<path style="fill:url(#SVGID_12_);" d="M359.92,123.81l-6.31,21.32c-31.59-3.6-63.14-9.58-93.82-17.81
		c-30.71-8.23-61.02-18.83-90.16-31.51l5.2-21.62c29.22,13.07,59.67,23.89,90.58,32.18C296.31,114.66,328.08,120.52,359.92,123.81z"
		/>
	<linearGradient id="SVGID_13_" gradientUnits="userSpaceOnUse" x1="100.6968" y1="181.8422" x2="362.8609" y2="223.365">
		<stop  offset="0.0261" style="stop-color:#4D4D4D"/>
		<stop  offset="0.0818" style="stop-color:#7A7A7A"/>
		<stop  offset="0.4518" style="stop-color:#FFFFFF"/>
		<stop  offset="0.5376" style="stop-color:#FBFBFB"/>
		<stop  offset="0.6199" style="stop-color:#F0F0F0"/>
		<stop  offset="0.7009" style="stop-color:#DCDCDC"/>
		<stop  offset="0.781" style="stop-color:#C1C1C1"/>
		<stop  offset="0.8598" style="stop-color:#9E9E9E"/>
		<stop  offset="0.9281" style="stop-color:#7A7A7A"/>
		<stop  offset="0.992" style="stop-color:#333333"/>
	</linearGradient>
	<path style="fill:url(#SVGID_13_);" d="M351.3,152.92l-5.9,19.95c-0.6,2.01-1.09,3.76-1.52,5.37c-11.45,42.7-9.46,88.68,5.5,130.24
		c-44.43-4.31-88.73-12.32-131.76-23.85c-2.18-0.59-4.36-1.19-6.54-1.8l6.12-17.84c0.27-0.79,0.29-1.66,0.04-2.46l-8.35-27.33
		l25.4-86.71c0.57-1.95-0.42-4.02-2.29-4.81c-1.88-0.79-4.05-0.04-5.04,1.74l-46.06,82.4c-0.43,0.78-0.59,1.68-0.46,2.55l5.34,35.25
		l-3.51,8.64c-30.77-9.77-61.22-21.5-90.68-34.92c35.25-29.74,60.46-70.48,71.28-115.42l4.86-20.21
		c29.1,12.59,59.35,23.13,89.99,31.34C288.33,143.26,319.79,149.26,351.3,152.92z"/>
	<path d="M389.41,397.75c0.08,1.13-0.32,2.23-1.1,3.04c-0.76,0.79-1.8,1.24-2.89,1.24c-0.04,0-0.07,0-0.1,0
		c-25.06-0.62-50.12-2.42-75.05-5.34c-0.16,0.95-0.36,1.89-0.6,2.81c-3.88,14.46-17.01,24.02-31.31,24.02
		c-2.77,0-5.58-0.36-8.38-1.11c-8.37-2.24-15.35-7.61-19.68-15.1c-3.66-6.34-5.03-13.57-4.02-20.7c-8.94-1.78-17.85-3.69-26.72-5.76
		c-1.95-0.27-3.45-1.94-3.45-3.96v-0.02c0-0.04,0-0.08,0-0.12l0.55-29.71l-16.73-4.92l-4.43,28.12c0,0.02-0.01,0.05-0.01,0.07
		c-0.37,2.17-2.42,3.65-4.59,3.29c-0.22-0.03-0.43-0.08-0.63-0.15c-61.4-16.73-120.82-40.64-176.61-71.07
		c-0.99-0.54-1.7-1.47-1.97-2.56c-0.27-1.1-0.06-2.25,0.57-3.19l19.89-29.51c0.43-0.64,1.04-1.14,1.75-1.44
		c6.88-2.95,13.72-6.34,20.35-10.07c9.57-5.4,18.77-11.59,27.35-18.41c36.49-28.95,62.59-69.84,73.49-115.15l13.09-54.44
		c0.28-1.16,1.06-2.14,2.14-2.66c0.2-0.1,0.61-0.23,0.61-0.23c26.59-7.93,54.44-10.06,81.73-6.36c-1.61-5.22-1.76-10.85-0.32-16.22
		c4.18-15.57,20.25-24.84,35.83-20.66c15.57,4.17,24.84,20.24,20.67,35.81c-1.45,5.38-4.39,10.18-8.41,13.89
		c25.49,10.46,48.55,26.21,67.61,46.38c0,0,0.28,0.33,0.41,0.51c0.67,0.99,0.86,2.23,0.52,3.38l-15.9,53.68
		c-0.57,1.95-1.05,3.64-1.47,5.18c-11.56,43.13-8.9,89.76,7.5,131.28c4.01,10.21,8.88,20.17,14.48,29.63
		c3.83,6.5,8.07,12.86,12.59,18.9c0.46,0.62,0.74,1.36,0.79,2.13L389.41,397.75z M381.12,393.91l-0.76-11.1
		c-52.5-1.95-104.92-8.98-155.97-20.91l-0.22,11.81C275.57,385.52,328.33,392.31,381.12,393.91z M379.81,374.78l-0.75-10.81
		c-4.01-5.42-7.78-11.09-11.27-16.86c-48.57-3.11-97.06-10.58-144.3-22.24l1.1,2.29c0.27,0.56,0.41,1.18,0.4,1.81l-0.46,24.75
		C275.34,365.71,327.53,372.79,379.81,374.78z M353.61,145.13l6.31-21.32c-31.84-3.29-63.61-9.15-94.51-17.44
		c-30.91-8.29-61.36-19.11-90.58-32.18l-5.2,21.62c29.14,12.68,59.45,23.28,90.16,31.51C290.47,135.55,322.02,141.53,353.61,145.13z
		 M362.99,338.77c-3.88-7.12-7.36-14.47-10.41-21.96c-46.2-4.24-92.29-12.46-137.04-24.46c-2.35-0.63-4.71-1.28-7.07-1.94
		l-0.67,1.95l11.16,23.12C266.05,327.52,314.46,335.34,362.99,338.77z M345.4,172.87l5.9-19.95c-31.51-3.66-62.97-9.66-93.58-17.87
		c-30.64-8.21-60.89-18.75-89.99-31.34l-4.86,20.21c-10.82,44.94-36.03,85.68-71.28,115.42c29.46,13.42,59.91,25.15,90.68,34.92
		l3.51-8.64l-5.34-35.25c-0.13-0.87,0.03-1.77,0.46-2.55l46.06-82.4c0.99-1.78,3.16-2.53,5.04-1.74c1.87,0.79,2.86,2.86,2.29,4.81
		l-25.4,86.71l8.35,27.33c0.25,0.8,0.23,1.67-0.04,2.46l-6.12,17.84c2.18,0.61,4.36,1.21,6.54,1.8
		c43.03,11.53,87.33,19.54,131.76,23.85c-14.96-41.56-16.95-87.54-5.5-130.24C344.31,176.63,344.8,174.88,345.4,172.87z
		 M354.25,115.14c-22.38-21-49.59-36.2-79.36-44.18c-29.76-7.98-60.93-8.43-90.81-1.44c27,11.73,55,21.51,83.4,29.12
		C295.87,106.25,325,111.79,354.25,115.14z M301.94,397.43c0.15-0.56,0.27-1.13,0.38-1.7c-16.13-2.05-32.2-4.6-48.17-7.6
		c-1.47,11.88,6.01,23.36,17.9,26.55c6.3,1.69,12.88,0.83,18.52-2.43C296.21,408.99,300.25,403.73,301.94,397.43z M301.11,55.22
		c1.47-5.48,0.71-11.21-2.12-16.12c-2.84-4.91-7.42-8.43-12.89-9.9c-11.32-3.03-23,3.7-26.03,15.01
		c-1.41,5.27-0.73,10.87,1.85,15.63c5.05,0.94,10.06,2.06,15.04,3.4c4.97,1.33,9.86,2.87,14.69,4.59
		C296.28,65,299.69,60.49,301.11,55.22z M216.97,329.77l-17.09-35.41c-0.45-0.95-0.52-2.05-0.18-3.04l9.51-27.7l-8.32-27.23
		c-0.23-0.74-0.23-1.54-0.01-2.29l15.76-53.83l-28.09,50.26l5.31,34.97c0.1,0.72,0.02,1.44-0.25,2.11l-8.96,22.02l16.77,39.08
		c0.3,0.69,0.39,1.45,0.27,2.2l-0.51,3.24l15.63,4.6L216.97,329.77z M193.61,330.8l-6.83-15.92
		c-44.75-13.31-88.63-30.55-130.47-51.28c-5.94,3.27-12.04,6.29-18.18,8.96l-6.05,8.99c50.59,26.72,104.13,48.1,159.27,63.6
		L193.61,330.8z M188.29,364.61l1.81-11.5c-56.29-15.75-110.93-37.57-162.52-64.89l-6.22,9.23
		C74.24,325.92,130.36,348.49,188.29,364.61z M182.66,305.29l-6.02-14.04c-0.42-0.98-0.43-2.09-0.03-3.08l2.63-6.48
		c-32.13-10.23-63.92-22.56-94.6-36.72c-6.38,4.96-13.08,9.58-20,13.81C102.63,277.29,142.26,292.91,182.66,305.29z"/>
</g>
<g>
</g>
<g>
</g>
<g>
</g>
<g>
</g>
<g>
</g>
<g>
</g>
<g>
</g>
<g>
</g>
<g>
</g>
<g>
</g>
<g>
</g>
<g>
</g>
<g>
</g>
<g>
</g>
<g>
</g>
</svg>
